<svg id="svg" version="1.1" xmlns="http://www.w3.org/2000/svg" xmlns:xlink="http://www.w3.org/1999/xlink" width="400" height="740.7407407407406" viewBox="0, 0, 400,740.7407407407406"><g id="svgg"><path id="path0" d="M0.092 135.953 L 0.185 271.906 17.407 279.785 C 26.880 284.118,41.296 290.711,49.444 294.435 C 57.593 298.159,73.093 305.248,83.889 310.189 C 112.005 323.056,184.989 356.436,192.296 359.771 C 195.698 361.323,198.797 362.593,199.183 362.593 C 199.842 362.593,219.062 353.736,224.538 350.909 C 225.914 350.199,227.830 349.305,228.797 348.923 C 229.764 348.540,233.139 346.972,236.296 345.438 C 239.454 343.904,251.287 338.376,262.593 333.154 C 273.898 327.932,309.440 311.391,341.574 296.398 L 400.000 269.137 400.000 134.568 L 400.000 0.000 200.000 -0.000 L -0.001 -0.000 0.092 135.953 M399.259 455.719 C 399.259 456.012,399.426 456.356,399.630 456.481 C 399.833 456.607,400.000 456.367,400.000 455.948 C 400.000 455.528,399.833 455.185,399.630 455.185 C 399.426 455.185,399.259 455.425,399.259 455.719 " stroke="none" fill="#f3f3f4" fill-rule="evenodd"></path><path id="path1" d="M-0.000 506.309 L 0.000 740.741 200.000 740.741 L 400.000 740.741 400.000 598.884 C 400.000 486.044,399.905 456.874,399.537 456.280 C 399.162 455.674,399.169 455.474,399.575 455.221 C 399.929 455.001,399.604 454.745,398.463 454.343 C 397.577 454.031,392.019 451.576,386.111 448.887 C 380.204 446.198,372.620 442.745,369.259 441.215 C 365.898 439.685,360.815 437.387,357.963 436.109 C 355.111 434.831,351.642 433.254,350.253 432.606 C 348.864 431.958,345.031 430.212,341.734 428.725 C 331.457 424.091,316.245 417.185,313.148 415.748 C 311.519 414.992,305.102 412.074,298.889 409.264 C 285.256 403.099,276.970 399.338,269.074 395.732 C 256.766 390.111,245.424 384.954,236.111 380.743 C 197.385 363.235,198.296 363.671,199.125 363.065 C 199.739 362.616,199.739 362.593,199.126 362.593 C 198.771 362.593,195.698 361.323,192.296 359.771 C 185.155 356.512,110.908 322.554,88.148 312.137 C 79.694 308.268,64.028 301.103,53.333 296.215 C 42.639 291.328,26.972 284.159,18.519 280.286 C 10.065 276.412,2.440 272.936,1.574 272.561 L -0.000 271.878 -0.000 506.309 " stroke="none" fill="#9333fb" fill-rule="evenodd"></path><path id="path2" d="M376.111 280.420 C 342.579 296.116,322.269 305.608,312.407 310.192 C 307.722 312.370,296.806 317.448,288.148 321.476 C 279.491 325.505,264.824 332.303,255.556 336.583 C 246.287 340.863,238.204 344.625,237.593 344.942 C 236.981 345.260,234.898 346.259,232.963 347.162 C 231.028 348.065,227.361 349.808,224.815 351.035 C 219.058 353.809,202.248 361.692,200.000 362.672 L 198.333 363.398 200.157 364.332 C 201.878 365.212,214.313 370.888,236.111 380.743 C 245.424 384.954,256.766 390.111,269.074 395.732 C 276.970 399.338,285.256 403.099,298.889 409.264 C 305.102 412.074,311.519 414.992,313.148 415.748 C 316.245 417.185,331.457 424.091,341.734 428.725 C 345.031 430.212,348.864 431.958,350.253 432.606 C 351.642 433.254,355.111 434.830,357.963 436.107 C 360.815 437.385,366.148 439.797,369.815 441.469 C 384.649 448.231,398.381 454.382,399.167 454.616 L 400.000 454.865 400.000 362.062 C 400.000 311.020,399.958 269.274,399.907 269.292 C 399.856 269.309,389.148 274.317,376.111 280.420 " stroke="none" fill="#6b239c" fill-rule="evenodd"></path></g></svg>